<svg width="20" height="20" viewBox="0 0 20 20" fill="none" xmlns="http://www.w3.org/2000/svg">
<path d="M5.78366 1.66669C6.13033 1.66669 6.41116 1.93669 6.41116 2.27002V3.48669C6.96783 3.47669 7.59199 3.47669 8.29449 3.47669H11.6403C12.342 3.47669 12.9662 3.47669 13.5228 3.48752V2.27085C13.5228 1.93752 13.8037 1.66669 14.1503 1.66669C14.497 1.66669 14.7778 1.93669 14.7778 2.27002V3.54169C15.982 3.63419 16.7728 3.86169 17.3528 4.42085C17.9345 4.97919 18.1712 5.73919 18.267 6.89752L18.3337 7.50002H1.66699V6.89669C1.76366 5.73835 2.00033 4.97835 2.58116 4.42002C3.16199 3.86169 3.95199 3.63335 5.15616 3.54085V2.27002C5.15616 1.93669 5.43699 1.66669 5.78366 1.66669Z" fill="#B6C4DB"/>
<g opacity="0.5">
<path d="M18.3329 11.6667V10C18.3329 9.30083 18.3296 8.05417 18.3188 7.5H1.6746C1.66376 8.05417 1.66626 9.30083 1.66626 10V11.6667C1.66626 14.8092 1.66626 16.3808 2.64293 17.3567C3.6196 18.3325 5.1896 18.3333 8.33293 18.3333H11.6663C14.8079 18.3333 16.3796 18.3333 17.3563 17.3567C18.3329 16.38 18.3329 14.81 18.3329 11.6667Z" fill="#B6C4DB" fill-opacity="0.25"/>
<path d="M17.8242 8C17.8299 8.61624 17.833 9.46573 17.833 10V11.667C17.833 13.2526 17.8314 14.3915 17.7148 15.2578C17.6002 16.1094 17.3828 16.623 17.0029 17.0029C16.623 17.3829 16.1089 17.6012 15.2568 17.7158C14.3902 17.8324 13.251 17.833 11.666 17.833H8.33301C6.74733 17.833 5.60858 17.8325 4.74219 17.7158C3.89021 17.6011 3.37616 17.3827 2.99609 17.0029C2.6164 16.6235 2.3988 16.1098 2.28418 15.2578C2.16763 14.3912 2.16602 13.2522 2.16602 11.667V8.69629C2.16639 8.45139 2.1695 8.2119 2.1709 8H17.8242Z" stroke="#B6C4DB" stroke-opacity="0.2"/>
</g>
<path d="M15 14.1667C15 14.3877 14.9122 14.5996 14.7559 14.7559C14.5996 14.9122 14.3877 15 14.1667 15C13.9457 15 13.7337 14.9122 13.5774 14.7559C13.4211 14.5996 13.3333 14.3877 13.3333 14.1667C13.3333 13.9457 13.4211 13.7337 13.5774 13.5774C13.7337 13.4211 13.9457 13.3333 14.1667 13.3333C14.3877 13.3333 14.5996 13.4211 14.7559 13.5774C14.9122 13.7337 15 13.9457 15 14.1667ZM15 10.8333C15 11.0543 14.9122 11.2663 14.7559 11.4226C14.5996 11.5789 14.3877 11.6667 14.1667 11.6667C13.9457 11.6667 13.7337 11.5789 13.5774 11.4226C13.4211 11.2663 13.3333 11.0543 13.3333 10.8333C13.3333 10.6123 13.4211 10.4004 13.5774 10.2441C13.7337 10.0878 13.9457 10 14.1667 10C14.3877 10 14.5996 10.0878 14.7559 10.2441C14.9122 10.4004 15 10.6123 15 10.8333ZM10.8333 14.1667C10.8333 14.3877 10.7455 14.5996 10.5893 14.7559C10.433 14.9122 10.221 15 10 15C9.77899 15 9.56702 14.9122 9.41074 14.7559C9.25446 14.5996 9.16667 14.3877 9.16667 14.1667C9.16667 13.9457 9.25446 13.7337 9.41074 13.5774C9.56702 13.4211 9.77899 13.3333 10 13.3333C10.221 13.3333 10.433 13.4211 10.5893 13.5774C10.7455 13.7337 10.8333 13.9457 10.8333 14.1667ZM10.8333 10.8333C10.8333 11.0543 10.7455 11.2663 10.5893 11.4226C10.433 11.5789 10.221 11.6667 10 11.6667C9.77899 11.6667 9.56702 11.5789 9.41074 11.4226C9.25446 11.2663 9.16667 11.0543 9.16667 10.8333C9.16667 10.6123 9.25446 10.4004 9.41074 10.2441C9.56702 10.0878 9.77899 10 10 10C10.221 10 10.433 10.0878 10.5893 10.2441C10.7455 10.4004 10.8333 10.6123 10.8333 10.8333ZM6.66667 14.1667C6.66667 14.3877 6.57887 14.5996 6.42259 14.7559C6.26631 14.9122 6.05435 15 5.83333 15C5.61232 15 5.40036 14.9122 5.24408 14.7559C5.0878 14.5996 5 14.3877 5 14.1667C5 13.9457 5.0878 13.7337 5.24408 13.5774C5.40036 13.4211 5.61232 13.3333 5.83333 13.3333C6.05435 13.3333 6.26631 13.4211 6.42259 13.5774C6.57887 13.7337 6.66667 13.9457 6.66667 14.1667ZM6.66667 10.8333C6.66667 11.0543 6.57887 11.2663 6.42259 11.4226C6.26631 11.5789 6.05435 11.6667 5.83333 11.6667C5.61232 11.6667 5.40036 11.5789 5.24408 11.4226C5.0878 11.2663 5 11.0543 5 10.8333C5 10.6123 5.0878 10.4004 5.24408 10.2441C5.40036 10.0878 5.61232 10 5.83333 10C6.05435 10 6.26631 10.0878 6.42259 10.2441C6.57887 10.4004 6.66667 10.6123 6.66667 10.8333Z" fill="#B6C4DB"/>
</svg>
