<svg width="117" height="44" viewBox="0 0 117 44" fill="none" xmlns="http://www.w3.org/2000/svg">
<path d="M24.9929 17.652H20.2116C20.0753 16.8679 19.8239 16.1733 19.4574 15.5682C19.0909 14.9545 18.6349 14.4347 18.0895 14.0085C17.544 13.5824 16.9219 13.2628 16.223 13.0497C15.5327 12.8281 14.7869 12.7173 13.9858 12.7173C12.5625 12.7173 11.3011 13.0753 10.2017 13.7912C9.10227 14.4986 8.24148 15.5384 7.61932 16.9105C6.99716 18.2741 6.68608 19.9403 6.68608 21.9091C6.68608 23.9119 6.99716 25.5994 7.61932 26.9716C8.25 28.3352 9.1108 29.3665 10.2017 30.0653C11.3011 30.7557 12.5582 31.1009 13.973 31.1009C14.7571 31.1009 15.4901 30.9986 16.1719 30.794C16.8622 30.581 17.4801 30.2699 18.0256 29.8608C18.5795 29.4517 19.044 28.9489 19.419 28.3523C19.8026 27.7557 20.0668 27.0739 20.2116 26.3068L24.9929 26.3324C24.8139 27.5767 24.4261 28.7443 23.8295 29.8352C23.2415 30.9261 22.4702 31.8892 21.5156 32.7244C20.5611 33.5511 19.4446 34.1989 18.1662 34.6676C16.8878 35.1278 15.4688 35.358 13.9091 35.358C11.608 35.358 9.55398 34.8253 7.74716 33.7599C5.94034 32.6946 4.51705 31.1562 3.47727 29.1449C2.4375 27.1335 1.91761 24.7216 1.91761 21.9091C1.91761 19.0881 2.44176 16.6761 3.49006 14.6733C4.53835 12.6619 5.96591 11.1236 7.77273 10.0582C9.57955 8.9929 11.625 8.46023 13.9091 8.46023C15.3665 8.46023 16.7216 8.66477 17.9744 9.07386C19.2273 9.48295 20.3438 10.0838 21.3239 10.8764C22.304 11.6605 23.1094 12.6236 23.7401 13.7656C24.3793 14.8991 24.7969 16.1946 24.9929 17.652ZM35.9196 23.4943V35H31.2917V8.81818H35.8173V18.7003H36.0474C36.5077 17.5923 37.2193 16.7187 38.1824 16.0795C39.154 15.4318 40.3898 15.108 41.8898 15.108C43.2534 15.108 44.4423 15.3935 45.4565 15.9645C46.4707 16.5355 47.2548 17.3707 47.8088 18.4702C48.3713 19.5696 48.6525 20.9119 48.6525 22.4972V35H44.0247V23.2131C44.0247 21.892 43.6838 20.8651 43.002 20.1321C42.3287 19.3906 41.3827 19.0199 40.1639 19.0199C39.3457 19.0199 38.6128 19.1989 37.965 19.5568C37.3258 19.9062 36.823 20.4134 36.4565 21.0781C36.0986 21.7429 35.9196 22.5483 35.9196 23.4943ZM68.0455 26.7415V15.3636H72.6733V35H68.1861V31.5099H67.9816C67.5384 32.6094 66.8097 33.5085 65.7955 34.2074C64.7898 34.9062 63.5498 35.2557 62.0753 35.2557C60.7884 35.2557 59.6506 34.9702 58.662 34.3991C57.6819 33.8196 56.9148 32.9801 56.3608 31.8807C55.8069 30.7727 55.5299 29.4347 55.5299 27.8665V15.3636H60.1577V27.1506C60.1577 28.3949 60.4986 29.3835 61.1804 30.1165C61.8623 30.8494 62.7571 31.2159 63.8651 31.2159C64.5469 31.2159 65.2074 31.0497 65.8466 30.7173C66.4858 30.3849 67.01 29.8906 67.4191 29.2344C67.8367 28.5696 68.0455 27.7386 68.0455 26.7415Z" fill="white"/>
<path d="M104.028 35.3963C102.784 35.3963 101.663 35.1747 100.666 34.7315C99.6776 34.2798 98.8935 33.6151 98.3139 32.7372C97.7429 31.8594 97.4574 30.777 97.4574 29.4901C97.4574 28.3821 97.6619 27.4659 98.071 26.7415C98.4801 26.017 99.0384 25.4375 99.7457 25.0028C100.453 24.5682 101.25 24.2401 102.136 24.0185C103.031 23.7884 103.956 23.6222 104.911 23.5199C106.061 23.4006 106.994 23.294 107.71 23.2003C108.426 23.098 108.946 22.9446 109.27 22.7401C109.602 22.527 109.768 22.1989 109.768 21.7557V21.679C109.768 20.7159 109.483 19.9702 108.912 19.4418C108.341 18.9134 107.518 18.6491 106.445 18.6491C105.311 18.6491 104.412 18.8963 103.747 19.3906C103.091 19.8849 102.648 20.4687 102.418 21.142L98.0966 20.5284C98.4375 19.3352 99 18.3381 99.7841 17.5369C100.568 16.7273 101.527 16.1222 102.661 15.7216C103.794 15.3125 105.047 15.108 106.419 15.108C107.365 15.108 108.307 15.2188 109.244 15.4403C110.182 15.6619 111.038 16.0284 111.814 16.5398C112.589 17.0426 113.212 17.7287 113.68 18.598C114.158 19.4673 114.396 20.554 114.396 21.858V35H109.947V32.3026H109.794C109.513 32.848 109.116 33.3594 108.605 33.8366C108.102 34.3054 107.467 34.6847 106.7 34.9744C105.942 35.2557 105.051 35.3963 104.028 35.3963ZM105.23 31.9957C106.159 31.9957 106.964 31.8125 107.646 31.446C108.328 31.071 108.852 30.5767 109.219 29.9631C109.594 29.3494 109.781 28.6804 109.781 27.956V25.642C109.636 25.7614 109.389 25.8722 109.04 25.9744C108.699 26.0767 108.315 26.1662 107.889 26.2429C107.463 26.3196 107.041 26.3878 106.624 26.4474C106.206 26.5071 105.844 26.5582 105.537 26.6009C104.847 26.6946 104.229 26.848 103.683 27.0611C103.138 27.2741 102.707 27.5724 102.392 27.956C102.077 28.331 101.919 28.8168 101.919 29.4134C101.919 30.2656 102.23 30.9091 102.852 31.3438C103.474 31.7784 104.267 31.9957 105.23 31.9957Z" fill="white"/>
<path d="M85.5467 22.5417V35H86.7077V23.5C86.7077 23.5 87.3445 22.7787 87.8688 22.5417C89.7964 21.6701 91.6421 26.6944 91.6421 26.6944C91.6421 26.6944 92.4474 23.8999 91.6421 22.5417C90.7793 21.0865 87.8688 20.9444 87.8688 20.9444C87.8688 20.9444 88.8127 20.0301 89.32 19.3472C91.0674 16.9955 91.6421 12 91.6421 12C91.6421 12 86.7709 12.6246 85.5467 15.1944C84.5993 17.1832 85.5467 20.9444 85.5467 20.9444C85.5467 20.9444 83.5368 19.3088 82.0636 19.3472C79.0123 19.4267 78 26.6944 78 26.6944C78 26.6944 80.5794 27.3125 82.0636 26.6944C83.9392 25.9134 85.5467 22.5417 85.5467 22.5417Z" fill="#00FF70" stroke="#1DDF72" stroke-width="2"/>
</svg>
